# Blender 5.0.1
# www.blender.org
mtllib Grass.mtl
o Cube.001
v -3.517881 -6.273418 1.825449
v -3.517881 -5.640089 1.825449
v -3.517881 -6.273418 1.192119
v -3.517881 -5.640089 1.192119
v -2.884552 -6.273418 1.825449
v -2.884552 -5.640089 1.825449
v -2.884552 -6.273418 1.192119
v -2.884552 -5.640089 1.192119
v -3.307026 -1.871028 1.614594
v -3.307026 -1.871028 1.402974
v -3.095407 -1.871028 1.402974
v -3.095407 -1.871028 1.614594
v -3.412462 -3.755701 1.720029
v -3.412462 -3.755701 1.297539
v -2.989971 -3.755701 1.720029
v -2.989971 -3.755701 1.297539
vn -1.0000 -0.0000 -0.0000
vn -0.0000 -0.0000 -1.0000
vn 1.0000 -0.0000 -0.0000
vn -0.0000 -0.0000 1.0000
vn -0.0000 -1.0000 -0.0000
vn -0.9984 0.0559 -0.0000
vn -0.0000 1.0000 -0.0000
vn -0.0000 0.0559 0.9984
vn -0.0000 0.0559 -0.9984
vn 0.9984 0.0559 -0.0000
vt 0.375000 0.000000
vt 0.625000 0.000000
vt 0.625000 0.250000
vt 0.375000 0.250000
vt 0.625000 0.500000
vt 0.375000 0.500000
vt 0.625000 0.750000
vt 0.375000 0.750000
vt 0.625000 1.000000
vt 0.375000 1.000000
vt 0.125000 0.500000
vt 0.125000 0.750000
vt 0.875000 0.500000
vt 0.875000 0.750000
s 0
f 1/1/1 2/2/1 4/3/1 3/4/1
f 3/4/2 4/3/2 8/5/2 7/6/2
f 7/6/3 8/5/3 6/7/3 5/8/3
f 5/8/4 6/7/4 2/9/4 1/10/4
f 3/11/5 7/6/5 5/8/5 1/12/5
f 14/3/6 13/2/6 9/2/6 10/3/6
f 11/5/7 10/13/7 9/14/7 12/7/7
f 13/9/8 15/7/8 12/7/8 9/9/8
f 16/5/9 14/3/9 10/3/9 11/5/9
f 15/7/10 16/5/10 11/5/10 12/7/10
f 6/7/10 8/5/10 16/5/10 15/7/10
f 8/5/9 4/3/9 14/3/9 16/5/9
f 2/9/8 6/7/8 15/7/8 13/9/8
f 4/3/6 2/2/6 13/2/6 14/3/6
